<svg width="460" height="159" viewBox="0 0 460 159" fill="none" xmlns="http://www.w3.org/2000/svg">
<rect x="355" y="71" width="10" height="105" transform="rotate(-90 355 71)" fill="url(#paint0_linear_4_4)" fill-opacity="0.9"/>
<rect x="355" y="113" width="10" height="85" transform="rotate(-90 355 113)" fill="url(#paint1_linear_4_4)" fill-opacity="0.9"/>
<rect x="355" y="92" width="10" height="95" transform="rotate(-90 355 92)" fill="url(#paint2_linear_4_4)" fill-opacity="0.9"/>
<path d="M25.202 99.1551C26.8605 99.1551 28.3388 98.7946 29.6367 98.0735L29.0959 110.296C25.7068 113.108 21.849 114.514 17.5224 114.514C10.9605 114.514 6.70612 113 4.75918 109.971C3.46122 107.952 2.81224 105.825 2.81224 103.59C2.81224 101.282 2.95646 99.2633 3.2449 97.5327L9.73469 60.9735H28.1225L22.0653 95.0449C21.9932 95.4776 21.9571 95.8741 21.9571 96.2347C21.9571 98.1816 23.0388 99.1551 25.202 99.1551ZM11.898 43.3429C11.898 38.7279 12.9075 35.3748 14.9265 33.2837C17.0177 31.1204 20.2265 30.0388 24.5531 30.0388C30.6102 30.0388 33.6388 32.7068 33.6388 38.0429C33.6388 42.5857 32.5932 45.9027 30.502 47.9939C28.483 50.085 25.2741 51.1306 20.8755 51.1306C14.8905 51.1306 11.898 48.5347 11.898 43.3429ZM71.1148 79.7939C71.1148 76.6932 69.6005 75.1429 66.572 75.1429C63.6155 75.1429 61.1638 76.2605 59.2169 78.4959L53.1597 113H34.772L43.9658 60.9735H61.0556L59.8658 67.3551C64.1203 62.0912 69.4924 59.4592 75.9822 59.4592C82.472 59.4592 86.6903 61.0456 88.6373 64.2184C89.8631 66.2374 90.476 68.5449 90.476 71.1408C90.476 73.7367 90.2958 76.1524 89.9352 78.3878L87.0148 95.0449C86.9427 95.4776 86.9066 95.8741 86.9066 96.2347C86.9066 98.1816 87.9883 99.1551 90.1515 99.1551C91.8101 99.1551 93.2883 98.7946 94.5862 98.0735L94.0454 110.296C90.6563 113.108 86.7985 114.514 82.472 114.514C72.6652 114.514 67.7618 110.404 67.7618 102.184C67.7618 100.741 67.906 99.1912 68.1944 97.5327L70.7903 83.1469C71.0066 81.849 71.1148 80.7313 71.1148 79.7939ZM124.078 114.514C115.713 114.514 109.692 112.639 106.014 108.89C103.274 106.15 101.904 102.472 101.904 97.8571C101.904 96.3429 102.048 94.7204 102.337 92.9898L109.692 51.1306L129.486 42.9102L126.349 60.9735H156.202L153.498 76.2245H123.645L121.482 88.4469C121.193 89.817 121.049 91.0429 121.049 92.1245C121.049 96.6673 123.212 98.9388 127.539 98.9388C129.846 98.9388 131.757 97.9653 133.272 96.0184C134.858 94.0714 135.94 91.4755 136.516 88.2306H154.472C151.443 105.753 141.312 114.514 124.078 114.514ZM212.428 96.3429C212.428 98.2177 213.366 99.1551 215.241 99.1551C217.188 99.1551 218.81 98.7946 220.108 98.0735L219.567 110.296C216.106 113.108 212.212 114.514 207.886 114.514C199.737 114.514 195.303 111.378 194.581 105.104C190.255 111.378 184.414 114.514 177.059 114.514C169.776 114.514 165.053 112.856 162.89 109.539C161.447 107.448 160.726 105.068 160.726 102.4C160.726 99.732 160.943 97.2803 161.375 95.0449L167.433 60.9735H185.82L180.737 89.7449C180.52 91.0429 180.412 92.3408 180.412 93.6388C180.412 97.1 182.359 98.8306 186.253 98.8306C189.498 98.8306 192.094 97.7129 194.041 95.4776L200.206 60.9735H218.594L212.537 95.0449C212.464 95.4776 212.428 95.9102 212.428 96.3429ZM249.986 114.514C241.622 114.514 235.601 112.639 231.923 108.89C229.183 106.15 227.813 102.472 227.813 97.8571C227.813 96.3429 227.957 94.7204 228.246 92.9898L235.601 51.1306L255.395 42.9102L252.258 60.9735H282.111L279.407 76.2245H249.554L247.39 88.4469C247.102 89.817 246.958 91.0429 246.958 92.1245C246.958 96.6673 249.121 98.9388 253.448 98.9388C255.755 98.9388 257.666 97.9653 259.18 96.0184C260.767 94.0714 261.848 91.4755 262.425 88.2306H280.38C277.352 105.753 267.22 114.514 249.986 114.514ZM318.543 59.4592C326.331 59.4592 332.208 61.1537 336.174 64.5429C339.275 67.2109 340.825 70.9245 340.825 75.6837C340.825 77.2701 340.645 79.0007 340.284 80.8755L338.013 93.5306C336.643 101.174 333.434 106.582 328.386 109.755C323.411 112.928 316.741 114.514 308.376 114.514C300.011 114.514 293.882 112.928 289.988 109.755C287.104 107.376 285.662 103.806 285.662 99.0469C285.662 97.3884 285.842 95.5497 286.203 93.5306L288.474 80.8755C290.998 66.598 301.021 59.4592 318.543 59.4592ZM321.464 83.0388C321.608 82.3177 321.68 81.4163 321.68 80.3347C321.68 79.181 321.211 77.919 320.274 76.549C319.337 75.1789 317.678 74.4939 315.298 74.4939C312.991 74.4939 311.044 75.2871 309.458 76.8735C307.871 78.3878 306.862 80.4429 306.429 83.0388L305.023 91.151C304.879 91.8721 304.807 92.8095 304.807 93.9633C304.807 95.0449 305.275 96.2347 306.213 97.5327C307.15 98.8306 308.773 99.4796 311.08 99.4796C313.46 99.4796 315.443 98.6864 317.029 97.1C318.615 95.4415 319.625 93.4585 320.058 91.151L321.464 83.0388ZM399.715 72.0061C399.715 74.4578 399.282 76.8374 398.417 79.1449C397.624 81.4524 396.83 83.1469 396.037 84.2286L394.847 85.7429H378.515C380.318 84.0844 381.219 82.0293 381.219 79.5776C381.219 78.2796 380.786 77.234 379.921 76.4408C379.128 75.5755 378.01 75.1429 376.568 75.1429C374.116 75.1429 371.989 76.3687 370.186 78.8204L364.129 113H345.741L354.935 60.9735H372.025L370.727 68.2204C374.837 62.3796 379.813 59.4592 385.654 59.4592C390.341 59.4592 393.838 60.5769 396.145 62.8122C398.525 65.0476 399.715 68.1122 399.715 72.0061Z" fill="black"/>
<defs>
<linearGradient id="paint0_linear_4_4" x1="360" y1="71" x2="360" y2="176" gradientUnits="userSpaceOnUse">
<stop/>
<stop offset="0.802083" stop-opacity="0.5"/>
<stop offset="1" stop-opacity="0"/>
</linearGradient>
<linearGradient id="paint1_linear_4_4" x1="360" y1="113" x2="360" y2="198" gradientUnits="userSpaceOnUse">
<stop/>
<stop offset="0.802083" stop-opacity="0.5"/>
<stop offset="1" stop-opacity="0"/>
</linearGradient>
<linearGradient id="paint2_linear_4_4" x1="360" y1="92" x2="360" y2="187" gradientUnits="userSpaceOnUse">
<stop/>
<stop offset="0.802083" stop-opacity="0.5"/>
<stop offset="1" stop-opacity="0"/>
</linearGradient>
</defs>
</svg>
